# xmcd CD database file
#
# Track frame offsets:
#	150
#	15326
#	28276
#	44608
#	61366
#	76028
#	88760
#	101318
#	114224
#	129788
#	141038
#	158946
#	174165
#	183820
#	201851
#	214799
#	224658
#
# Disc length: 3178 seconds
#
# Revision: 2
# Processed by: cddbd v1.5.2PL0 Copyright (c) Steve Scherf et al.
# Submitted via: CDex 1.82
#
DISCID=dc0c6811
DTITLE=Down Trodden String Band - Don't Get Weary
DYEAR=2017
DGENRE=Country
TTITLE0=Casey Jones
TTITLE1=Don't Get Weary - Chattanooga
TTITLE2=Porter's Reel
TTITLE3=Gospel Ship
TTITLE4=If The River Was Whisky
TTITLE5=Peeler Creek Waltz
TTITLE6=Cluck Old Hen
TTITLE7=Stone Mountain Wobble
TTITLE8=Chilly Winds
TTITLE9=The Old Town Band
TTITLE10=Faded Coat Of Blue
TTITLE11=Red Mountain Wine
TTITLE12=Roaring River
TTITLE13=Going Down To Tampa
TTITLE14=Down The River I Go Uncle Joe
TTITLE15=Sail Away Ladies
TTITLE16=Yum Yum Blues
EXTD=YEAR: 2017
EXTT0=
EXTT1=
EXTT2=
EXTT3=
EXTT4=
EXTT5=
EXTT6=
EXTT7=
EXTT8=
EXTT9=
EXTT10=
EXTT11=
EXTT12=
EXTT13=
EXTT14=
EXTT15=
EXTT16=
PLAYORDER=
